<svg xmlns="http://www.w3.org/2000/svg" viewBox="0 0 218.31 275.64"><defs><style>.cls-1{fill:#341e4d;}.cls-2{fill:#fff;}</style></defs><g id="Capa_2" data-name="Capa 2"><g id="register"><path class="cls-1" d="M26.69,180.25c-.75-.69-1.49-1.38-2.21-2.1C9.91,163.58,7.41,133.54,10.87,113.53c-4.29,4.54-6.51,13.31-9.35,19.9-2.65-8.57-1.35-19.7.25-28.32,2.75-14.72,11.68-20.84,20.85-30C15.53,70.1,12.14,64.42,8,57c7.88,2.8,14.9,6.36,21.4,8.61-.27-5.11-3.43-9.39-4.23-14.4-1.88-11.7,6.5-20.23,14.47-26.8C52.79,13.54,67.11,7.71,81.53,0,75.68,4.08,72.14,10.38,68.8,16.63c15.28-17.87,52.53-7.89,70-.6,13,5.43,24.85,15.32,39.55,13.45,7.56-1,13.84-5.3,20.84-7.73,3.25,7.25-8.77,16.55-12.81,21.1,15.16.39,24.43,2.27,31.93,17.24-8.57-4.38-12.06-4-18.25-4.32,13.4,12,14.86,34.56,15.72,52.23-3.53-8.41-7.74-17.91-12.7-25.14,7.72,28.94,3.43,59.47-8.38,86-4.84,10.89-6.46,23.17-10.83,34.48A140.15,140.15,0,0,1,175,222.1c-1.89,3.34-9,10.69-9.35,14.28l1.56-14.87c-2.93,11.25-10.66,20.81-20.38,25.22,5.13-3.7,7.22-11.83,4.65-18l-31.54,19.05a2.32,2.32,0,0,1-1.9.5c-.77-.27-1.11-1.23-1.35-2.08l-3.33-11.62a30.45,30.45,0,0,0-19.53,14.72c-.92,1.61-1.79,3.38-3.27,4.35a7.73,7.73,0,0,1-5.12.8c-12.53-1.17-18.61-16.67-26.87-27.26,1.08,2.85-1.08,10.59,0,13.44-9.62-8.87-18.65-18.32-19.85-32.18-.5-5.72-.21-11.74-2.48-16.89C34.17,186.85,30.33,183.62,26.69,180.25Z"/><path class="cls-2" d="M24,172.69c-3.88,2.47-7,6.43-7.46,10.9-.93,8.27,5.39,25.12,9.51,31.23,6.78,10,16.64,12.9,27.56,11.26.23-4.08-4.89-12.66-6.28-16.36C44.15,201.19,44.56,161.23,24,172.69Z"/><path class="cls-1" d="M23.76,172.26a18.18,18.18,0,0,0-6.08,6.31A14.1,14.1,0,0,0,16,185.81c.11,5,1.5,9.92,3,14.59a69.47,69.47,0,0,0,5.74,13.25A27,27,0,0,0,36,224.39c5.52,2.69,11.74,3.06,17.73,2.17a.5.5,0,0,0,.37-.48,11.76,11.76,0,0,0-.8-4.18,50.26,50.26,0,0,0-2-4.86c-.75-1.63-1.55-3.23-2.32-4.84a24.87,24.87,0,0,1-1.32-3.1,34.61,34.61,0,0,1-1-4.62c-.36-2.14-.67-4.28-1-6.42a109.84,109.84,0,0,0-3-14.49c-1.18-4-2.82-8.35-6-11.14a9,9,0,0,0-4.88-2.23,12.06,12.06,0,0,0-6.22,1.18,19.6,19.6,0,0,0-1.78.88c-.56.31-.05,1.18.51.86,3.48-1.92,7.68-3,11.13-.42,3.22,2.38,4.86,6.56,6,10.24a97,97,0,0,1,3.07,14.19,115,115,0,0,0,2,11.4,34.23,34.23,0,0,0,2.65,6.2c1.47,3,3.13,6.18,3.84,9.51a7.56,7.56,0,0,1,.18,1.84l.36-.48a29.88,29.88,0,0,1-15.37-1.38,25.5,25.5,0,0,1-11.91-10.1,59.44,59.44,0,0,1-5.54-12,60.43,60.43,0,0,1-3.58-14.36,14.91,14.91,0,0,1,.87-7.49,16.53,16.53,0,0,1,6.31-7.14C24.81,172.78,24.31,171.91,23.76,172.26Z"/><path class="cls-2" d="M194.76,172.69c4,2.58,7,6.43,7.47,10.9.92,8.27-5.4,25.12-9.52,31.23-6.78,10-16.64,12.9-27.56,11.26-.23-4.08,4.89-12.66,6.28-16.36C174.63,201.19,174.23,161.23,194.76,172.69Z"/><path class="cls-1" d="M194.51,173.12a17.13,17.13,0,0,1,5.93,6.32,13.43,13.43,0,0,1,1.36,6.77,51.69,51.69,0,0,1-3.06,14.09,68.9,68.9,0,0,1-5.52,12.75,26.19,26.19,0,0,1-10.82,10.4c-5.29,2.62-11.35,3-17.11,2.15l.36.48a11.14,11.14,0,0,1,.82-4.06,48.66,48.66,0,0,1,2.08-4.94,69.64,69.64,0,0,0,3.51-7.66,32.3,32.3,0,0,0,1-4.46c.35-2.05.65-4.11,1-6.16a116.34,116.34,0,0,1,2.83-14.21c1.1-3.9,2.58-8.2,5.58-11.09a8.19,8.19,0,0,1,4.42-2.27,10.76,10.76,0,0,1,5.88,1,19.43,19.43,0,0,1,1.77.88c.57.32,1.07-.55.51-.86-3.64-2-8.1-3.14-11.81-.65-3.45,2.31-5.28,6.49-6.57,10.28a90.11,90.11,0,0,0-3.23,14.43c-.63,3.94-1,8-2,11.85a35,35,0,0,1-2.75,6.42c-1.48,3.06-3.17,6.27-3.81,9.64a8.22,8.22,0,0,0-.17,1.85.5.5,0,0,0,.37.48,30.84,30.84,0,0,0,16.07-1.43,26.68,26.68,0,0,0,12.28-10.41,59.33,59.33,0,0,0,5.76-12.51,59.42,59.42,0,0,0,3.6-14.89,15.33,15.33,0,0,0-1.11-7.72,17.65,17.65,0,0,0-6.6-7.34C194.48,171.91,194,172.77,194.51,173.12Z"/><path class="cls-2" d="M157.36,71.16c-15.52-9.37-36.77-10.83-52.16-9.59C87.61,63,68.42,67.7,54.83,81.08S43.32,115.65,42,135.28c-.93,13.82,2.74,61.27,4.24,78,3.45,38.53,33.18,54.25,44.66,58.44,11.91,4.34,28.41,4.68,40.14-.14,9.85-4,43.33-17.47,45.23-80.25.45-14.76,1.87-25.34,1.86-40.09,0-18.66,3.3-42.68-3.53-60.16A41.14,41.14,0,0,0,157.36,71.16Z"/><path class="cls-1" d="M157.61,70.73c-10.26-6.15-22.31-8.82-34.14-9.71a121,121,0,0,0-33.8,2.24c-11.58,2.43-22.92,6.92-32.05,14.6A37.6,37.6,0,0,0,47.29,91.1a55.07,55.07,0,0,0-4.13,15.71c-.77,5.88-1,11.82-1.17,17.75-.16,4.57-.51,9.15-.61,13.73-.17,8,.27,16,.69,24q.8,14.76,1.93,29.52c.59,7.92,1,15.9,2,23.8a66.8,66.8,0,0,0,26.81,46.71,72.72,72.72,0,0,0,15.83,9.07,60.79,60.79,0,0,0,30.93,3.68,56.22,56.22,0,0,0,17.11-5.38,61.69,61.69,0,0,0,11.47-7.19A63.14,63.14,0,0,0,160.72,249a80.88,80.88,0,0,0,10.56-22.1,129.55,129.55,0,0,0,5.39-32.95c.31-6.83.61-13.64,1.06-20.46s.84-13.55.89-20.34c.1-12.49,1.13-25,.71-37.48-.39-11.81-2.11-24.28-9.45-33.95a44.21,44.21,0,0,0-12.27-11c-.55-.33-1.05.53-.5.87a42.49,42.49,0,0,1,12.78,11.8,43.5,43.5,0,0,1,6.67,16.16c2.57,12.1,1.95,24.7,1.47,37-.23,6.07-.33,12.13-.42,18.21-.1,6.55-.51,13.08-.94,19.62-.84,12.63-.76,25.36-2.92,37.86a98.37,98.37,0,0,1-8.36,26.82,68.4,68.4,0,0,1-11.8,17.12A59.83,59.83,0,0,1,141.42,266a69.36,69.36,0,0,1-9.48,4.75c-9.74,4-20.64,4.77-31,3.08a58.34,58.34,0,0,1-19.44-7,71.82,71.82,0,0,1-17-13.22,64.87,64.87,0,0,1-14.14-23.26,70.21,70.21,0,0,1-3.5-16c-.35-3.42-.61-6.85-.89-10.28q-1.11-13.53-2-27.09c-.61-9.23-1.16-18.47-1.45-27.72-.11-3.5-.19-7-.13-10.52.08-4.33.43-8.65.58-13,.4-11.2.42-23.08,5-33.55,4.67-10.75,14.7-18,25.16-22.65,10.65-4.7,22.39-6.82,34-7.57a104.79,104.79,0,0,1,34.11,3,63.25,63.25,0,0,1,16,6.64C157.66,71.93,158.16,71.06,157.61,70.73Z"/><path class="cls-1" d="M83,185.65a4.44,4.44,0,1,1-4.42-4.93A4.7,4.7,0,0,1,83,185.65Z"/><path class="cls-1" d="M145.3,185.65a4.44,4.44,0,1,1-4.41-4.93A4.69,4.69,0,0,1,145.3,185.65Z"/><path class="cls-1" d="M62.26,142.08a14.25,14.25,0,0,1,9-5.91,16,16,0,0,1,10,1.79,21.77,21.77,0,0,1,5,3.64c.65.62,1.65-.37,1-1-5.51-5.27-14.06-8.16-21.08-4.07a17.15,17.15,0,0,0-5.17,4.83c-.52.73.69,1.43,1.21.71Z"/><path class="cls-1" d="M158.45,144.62a16.61,16.61,0,0,0-9.6-8.13,17.65,17.65,0,0,0-12.15.61,17.93,17.93,0,0,0-5.94,4.14c-.62.65.37,1.65,1,1,5.43-5.72,14.61-6.92,21.05-2.17a15.27,15.27,0,0,1,4.44,5.27c.42.8,1.63.09,1.21-.71Z"/><path class="cls-1" d="M109.41,194.28a16,16,0,0,0,2.5,6.53,17.92,17.92,0,0,0,5,4.52v-.87c-2.47,1.77-4.91,3.56-7.39,5.31-.53.36,0,1.23.5.86,2.49-1.74,4.93-3.54,7.4-5.3a.51.51,0,0,0,0-.87,16.72,16.72,0,0,1-4.71-4.27,15.26,15.26,0,0,1-2.31-6.18c-.11-.63-1.08-.36-1,.27Z"/><path class="cls-1" d="M92.46,224.33a12.07,12.07,0,0,0,5.07,3.31,29.47,29.47,0,0,0,7.41,1.72A36.86,36.86,0,0,0,121,227.91a13.27,13.27,0,0,0,6-3.79c.4-.5-.3-1.21-.71-.71a11.6,11.6,0,0,1-4.94,3.29,28.8,28.8,0,0,1-7.26,1.68A36.34,36.34,0,0,1,98.79,227a12.08,12.08,0,0,1-5.62-3.42c-.41-.5-1.11.22-.71.71Z"/><path class="cls-1" d="M177.33,59.27a74.21,74.21,0,0,1,8.23,11c14.73,24.3,2,78.22-6.64,102.22-.45-10.9.52-31.63-6.48-38.93-9.26-9.64-15.77-20-24.62-30.16C142,96.7,137.3,89,132,81.24c1.42,10.52,5.36,21.29,6.63,28.26-10.08-4.86-24.68-15.37-24.29-32-.15,5.24,1,10.61,1.42,15.86.77,9.95,1.29,19.93,2.54,29.83.5,4,.7,8.25,1.18,12.87C110,133,104.13,120.26,99.19,111.47a145.35,145.35,0,0,0,.53,21.11C84.53,118.16,84,95.52,84.89,75.51c-2.26,14-7.4,25.95-12.86,38.22-5.34,12-13.27,20.54-19.73,31.41a78.4,78.4,0,0,0-2.46-14c-2.49,10.84.32,22.53.1,33.64-8.22-4.68-14.34-17.26-17-26.5-1.3-4.46-4.36-28.89-4.36-34.56,0-13.38,6.3-22.71,14.82-32.12L64,48.82c4.1-4.53,8.3-9.14,13.51-11.91s10.78-3.47,16.38-4c14.67-1.52,29.59-2,44,1.4C151.44,37.43,166.47,47.14,177.33,59.27Z"/></g></g></svg>